<svg width="200" height="40" viewBox="0 0 200 40" fill="none" xmlns="http://www.w3.org/2000/svg">
  <defs>
    <linearGradient id="goldGradient" x1="0%" y1="0%" x2="100%" y2="0%">
      <stop offset="0%" style="stop-color:#FFD700;stop-opacity:1" />
      <stop offset="50%" style="stop-color:#D4AF37;stop-opacity:1" />
      <stop offset="100%" style="stop-color:#B8860B;stop-opacity:1" />
    </linearGradient>
  </defs>
  
  <!-- Card Icon -->
  <rect x="2" y="8" width="32" height="20" rx="3" ry="3" fill="url(#goldGradient)" stroke="#FFFFFF" stroke-width="0.5"/>
  
  <!-- Chip -->
  <rect x="5" y="12" width="4" height="3" rx="0.5" fill="#FFFFFF" opacity="0.8"/>
  
  <!-- Card Numbers -->
  <circle cx="12" cy="16" r="0.5" fill="#FFFFFF" opacity="0.6"/>
  <circle cx="14" cy="16" r="0.5" fill="#FFFFFF" opacity="0.6"/>
  <circle cx="16" cy="16" r="0.5" fill="#FFFFFF" opacity="0.6"/>
  <circle cx="18" cy="16" r="0.5" fill="#FFFFFF" opacity="0.6"/>
  
  <rect x="20" y="15.5" width="2" height="1" rx="0.5" fill="#FFFFFF" opacity="0.6"/>
  <rect x="23" y="15.5" width="2" height="1" rx="0.5" fill="#FFFFFF" opacity="0.6"/>
  <rect x="26" y="15.5" width="2" height="1" rx="0.5" fill="#FFFFFF" opacity="0.6"/>
  <rect x="29" y="15.5" width="2" height="1" rx="0.5" fill="#FFFFFF" opacity="0.6"/>
  
  <!-- Text -->
  <text x="42" y="14" font-family="Arial, sans-serif" font-size="10" font-weight="300" fill="#FFFFFF" opacity="0.8">SARAF</text>
  <text x="42" y="26" font-family="Arial, sans-serif" font-size="12" font-weight="700" fill="#FFFFFF">CARD</text>
  <text x="78" y="18" font-family="Arial, sans-serif" font-size="8" font-weight="400" fill="url(#goldGradient)">ADMIN PORTAL</text>
  
  <!-- Decorative Elements -->
  <circle cx="170" cy="12" r="1.5" fill="url(#goldGradient)" opacity="0.8"/>
  <circle cx="176" cy="16" r="1" fill="url(#goldGradient)" opacity="0.6"/>
  <circle cx="182" cy="20" r="0.8" fill="url(#goldGradient)" opacity="0.4"/>
  
  <!-- Security Badge -->
  <path d="M190 8 L194 10 L198 8 L198 18 C198 20 196 22 194 22 C192 22 190 20 190 18 Z" fill="url(#goldGradient)" opacity="0.7"/>
  <path d="M192 12 L193.5 13.5 L196 11" stroke="#FFFFFF" stroke-width="0.5" fill="none"/>
</svg> 